<?xml version="1.0" encoding="utf-8"?>
<!-- Generator: Adobe Illustrator 16.0.0, SVG Export Plug-In . SVG Version: 6.00 Build 0)  -->
<!DOCTYPE svg PUBLIC "-//W3C//DTD SVG 1.1//EN" "http://www.w3.org/Graphics/SVG/1.1/DTD/svg11.dtd">
<svg version="1.1" id="Layer_1" xmlns="http://www.w3.org/2000/svg" xmlns:xlink="http://www.w3.org/1999/xlink" x="0px" y="0px"
	 width="68px" height="68px" viewBox="0 0 68 68" enable-background="new 0 0 68 68" xml:space="preserve">
<g>
	<path fill="#EF6945" d="M68,21.391C67.12,9.476,57.098,0,44.97,0H23.03C10.901,0,0.879,9.476,0,21.391H68z"/>
	<path fill="#FFFFFF" d="M0,21.351v23.598C0,57.626,10.373,68,23.051,68h21.898C57.627,68,68,57.626,68,44.949V21.351H0z"/>
	<rect y="34.673" fill="#1ED6C4" width="68" height="10.001"/>
	<g>
		<circle fill="#414042" cx="33.952" cy="41.745" r="16.507"/>
		<circle fill="#58595B" cx="33.952" cy="41.745" r="8.584"/>
		<circle opacity="0.5" fill="#FFFFFF" cx="37.239" cy="38.409" r="4.262"/>
		<circle fill="#FFFFFF" cx="40.232" cy="35.415" r="2.349"/>
	</g>
	<path fill="none" stroke="#FFFFFF" stroke-width="3.8418" stroke-miterlimit="10" d="M15.366,27.693
		c0-10.292,8.343-18.634,18.634-18.634s18.634,8.343,18.634,18.634"/>
</g>
</svg>
