<?xml version="1.0" encoding="utf-8"?>
<!-- Generator: Adobe Illustrator 18.1.1, SVG Export Plug-In . SVG Version: 6.00 Build 0)  -->
<!DOCTYPE svg PUBLIC "-//W3C//DTD SVG 1.1//EN" "http://www.w3.org/Graphics/SVG/1.1/DTD/svg11.dtd">
<svg version="1.1" id="圖層_1" xmlns="http://www.w3.org/2000/svg" xmlns:xlink="http://www.w3.org/1999/xlink" x="0px" y="0px"
	 viewBox="0 0 191.3 191.3" enable-background="new 0 0 191.3 191.3" xml:space="preserve">
<g>
	<g opacity="0.2">
		<g>
			<defs>
				<rect id="SVGID_1_" x="4.7" y="5.9" width="182" height="182"/>
			</defs>
			<clipPath id="SVGID_2_">
				<use xlink:href="#SVGID_1_"  overflow="visible"/>
			</clipPath>
			<path clip-path="url(#SVGID_2_)" d="M4.7,63v63.2c0,33.9,27.8,61.7,61.7,61.7H125c33.9,0,61.7-27.8,61.7-61.7V63H4.7z"/>
			<path clip-path="url(#SVGID_2_)" d="M125,5.9H66.4C34,5.9,7.2,31.2,4.9,63h181.6C184.1,31.2,157.4,5.9,125,5.9"/>
			<rect x="4.7" y="98.7" clip-path="url(#SVGID_2_)" width="182" height="26.8"/>
			<path clip-path="url(#SVGID_2_)" d="M139.7,117.6c0,24.4-19.8,44.2-44.2,44.2c-24.4,0-44.2-19.8-44.2-44.2
				c0-24.4,19.8-44.2,44.2-44.2C119.9,73.4,139.7,93.2,139.7,117.6"/>
			<path clip-path="url(#SVGID_2_)" d="M118.5,117.6c0,12.7-10.3,23-23,23c-12.7,0-23-10.3-23-23s10.3-23,23-23
				C108.2,94.6,118.5,104.9,118.5,117.6"/>
			<g opacity="0.5" clip-path="url(#SVGID_2_)">
				<g>
					<defs>
						<rect id="SVGID_3_" x="92.9" y="97.3" width="22.8" height="22.8"/>
					</defs>
					<clipPath id="SVGID_4_">
						<use xlink:href="#SVGID_3_"  overflow="visible"/>
					</clipPath>
					<path clip-path="url(#SVGID_4_)" d="M115.7,108.7c0,6.3-5.1,11.4-11.4,11.4c-6.3,0-11.4-5.1-11.4-11.4
						c0-6.3,5.1-11.4,11.4-11.4C110.6,97.3,115.7,102.4,115.7,108.7"/>
				</g>
			</g>
			<path clip-path="url(#SVGID_2_)" d="M118.6,100.7c0,3.5-2.8,6.3-6.3,6.3c-3.5,0-6.3-2.8-6.3-6.3c0-3.5,2.8-6.3,6.3-6.3
				C115.8,94.4,118.6,97.2,118.6,100.7"/>
			<path clip-path="url(#SVGID_2_)" d="M150.7,80h-10.3c0-24.7-20.1-44.7-44.7-44.7C71,35.3,50.9,55.3,50.9,80H40.7
				c0-30.3,24.7-55,55-55C126,25,150.7,49.7,150.7,80"/>
		</g>
	</g>
	<path fill="#FFFFFF" d="M4.7,60.6v63.2c0,33.9,27.8,61.7,61.7,61.7H125c33.9,0,61.7-27.8,61.7-61.7V60.6H4.7z"/>
	<path fill="#E26744" d="M125,3.5H66.4C34,3.5,7.2,28.8,4.9,60.6h181.6C184.1,28.8,157.4,3.5,125,3.5"/>
	<rect x="4.7" y="96.3" fill="#0ED8AB" width="182" height="26.8"/>
	<path fill="#414042" d="M139.7,115.2c0,24.4-19.8,44.2-44.2,44.2c-24.4,0-44.2-19.8-44.2-44.2C51.4,90.8,71.1,71,95.5,71
		C119.9,71,139.7,90.8,139.7,115.2"/>
	<path fill="#58595B" d="M118.5,115.2c0,12.7-10.3,23-23,23c-12.7,0-23-10.3-23-23c0-12.7,10.3-23,23-23
		C108.2,92.2,118.5,102.5,118.5,115.2"/>
	<g opacity="0.5">
		<g>
			<defs>
				<rect id="SVGID_5_" x="92.9" y="94.8" width="22.8" height="22.8"/>
			</defs>
			<clipPath id="SVGID_6_">
				<use xlink:href="#SVGID_5_"  overflow="visible"/>
			</clipPath>
			<path clip-path="url(#SVGID_6_)" fill="#FFFFFF" d="M115.7,106.3c0,6.3-5.1,11.4-11.4,11.4c-6.3,0-11.4-5.1-11.4-11.4
				c0-6.3,5.1-11.4,11.4-11.4C110.6,94.8,115.7,100,115.7,106.3"/>
		</g>
	</g>
	<path fill="#FFFFFF" d="M118.6,98.2c0,3.5-2.8,6.3-6.3,6.3c-3.5,0-6.3-2.8-6.3-6.3c0-3.5,2.8-6.3,6.3-6.3
		C115.8,92,118.6,94.8,118.6,98.2"/>
	<path fill="#FFFFFF" d="M150.7,77.6h-10.3c0-24.7-20.1-44.7-44.7-44.7c-24.7,0-44.7,20.1-44.7,44.7H40.7c0-30.3,24.7-55,55-55
		C126,22.6,150.7,47.2,150.7,77.6"/>
</g>
</svg>
