<?xml version="1.0" encoding="utf-8"?>
<!-- Generator: Adobe Illustrator 18.1.1, SVG Export Plug-In . SVG Version: 6.00 Build 0)  -->
<!DOCTYPE svg PUBLIC "-//W3C//DTD SVG 1.1//EN" "http://www.w3.org/Graphics/SVG/1.1/DTD/svg11.dtd">
<svg version="1.1" id="圖層_1" xmlns="http://www.w3.org/2000/svg" xmlns:xlink="http://www.w3.org/1999/xlink" x="0px" y="0px"
	 viewBox="0 0 289.5 301.5" enable-background="new 0 0 289.5 301.5" xml:space="preserve">
<g>
	<path fill="#0ED8AB" d="M18.7,247.1c0-2.5,2-4.6,4.6-4.6c2.5,0,4.6,2,4.6,4.6v0.4c2.1-2.7,4.9-5.2,9.5-5.2c4.2,0,7.4,1.9,9.1,5.1
		c2.8-3.3,6.2-5.1,10.6-5.1c6.8,0,10.9,4.1,10.9,11.8v16.7c0,2.5-2,4.6-4.6,4.6c-2.5,0-4.6-2-4.6-4.6v-13.7c0-4.3-1.9-6.5-5.3-6.5
		c-3.4,0-5.5,2.2-5.5,6.5v13.7c0,2.5-2,4.6-4.6,4.6c-2.5,0-4.6-2-4.6-4.6v-13.7c0-4.3-1.9-6.5-5.3-6.5c-3.4,0-5.5,2.2-5.5,6.5v13.7
		c0,2.5-2,4.6-4.6,4.6c-2.5,0-4.6-2-4.6-4.6V247.1z"/>
	<path fill="#0ED8AB" d="M87.3,275.8c-9.7,0-16.8-6.8-16.8-16.6V259c0-9.2,6.5-16.7,15.9-16.7c10.7,0,15.5,8.8,15.5,15.5
		c0,2.6-1.9,4.4-4.3,4.4H79.6c0.9,4.1,3.8,6.3,7.9,6.3c2.5,0,4.6-0.8,6.5-2.2c0.7-0.5,1.3-0.7,2.2-0.7c2,0,3.5,1.6,3.5,3.6
		c0,1.2-0.5,2.1-1.2,2.7C95.7,274.3,92,275.8,87.3,275.8 M93.2,256.5c-0.5-4.1-2.9-6.8-6.8-6.8c-3.8,0-6.2,2.7-7,6.8H93.2z"/>
	<path fill="#0ED8AB" d="M120.5,275.8c-9.7,0-16.8-6.8-16.8-16.6V259c0-9.2,6.5-16.7,15.9-16.7c10.7,0,15.5,8.8,15.5,15.5
		c0,2.6-1.9,4.4-4.3,4.4h-18.1c0.9,4.1,3.8,6.3,7.9,6.3c2.5,0,4.6-0.8,6.5-2.2c0.7-0.5,1.3-0.7,2.2-0.7c2,0,3.5,1.6,3.5,3.6
		c0,1.2-0.5,2.1-1.2,2.7C128.9,274.3,125.2,275.8,120.5,275.8 M126.4,256.5c-0.5-4.1-2.9-6.8-6.8-6.8c-3.8,0-6.2,2.7-7,6.8H126.4z"
		/>
	<path fill="#0ED8AB" d="M138.5,247.1c0-2.5,2-4.6,4.6-4.6c2.5,0,4.6,2,4.6,4.6v0.4c2.2-3,5.3-5.2,10-5.2c7.5,0,14.6,5.9,14.6,16.6
		v0.1c0,10.7-7,16.6-14.6,16.6c-4.9,0-7.9-2.2-10-4.8v9.6c0,2.5-2,4.6-4.6,4.6c-2.5,0-4.6-2-4.6-4.6V247.1z M163.1,259v-0.1
		c0-5.3-3.6-8.9-7.9-8.9c-4.3,0-7.8,3.5-7.8,8.9v0.1c0,5.3,3.5,8.9,7.8,8.9C159.5,267.9,163.1,264.4,163.1,259"/>
	<path fill="#0ED8AB" d="M175.4,235.5c0-2.5,2-4.6,4.6-4.6c2.5,0,4.6,2,4.6,4.6v12.1c2.2-3,5.3-5.2,10-5.2c7.5,0,14.6,5.9,14.6,16.6
		v0.1c0,10.7-7,16.6-14.6,16.6c-4.9,0-7.9-2.2-10-4.8v0.1c0,2.5-2,4.5-4.6,4.5c-2.5,0-4.6-2-4.6-4.6V235.5z M200,259v-0.1
		c0-5.3-3.6-8.9-7.9-8.9c-4.3,0-7.8,3.5-7.8,8.9v0.1c0,5.3,3.5,8.9,7.8,8.9C196.4,267.9,200,264.4,200,259"/>
	<path fill="#0ED8AB" d="M227.5,275.8c-9.7,0-16.8-6.8-16.8-16.6V259c0-9.2,6.5-16.7,15.9-16.7c10.7,0,15.5,8.8,15.5,15.5
		c0,2.6-1.9,4.4-4.3,4.4h-18.1c0.9,4.1,3.8,6.3,7.9,6.3c2.5,0,4.6-0.8,6.5-2.2c0.7-0.5,1.3-0.7,2.2-0.7c2,0,3.5,1.6,3.5,3.6
		c0,1.2-0.5,2.1-1.2,2.7C235.8,274.3,232.2,275.8,227.5,275.8 M233.4,256.5c-0.5-4.1-2.9-6.8-6.8-6.8c-3.8,0-6.2,2.7-7,6.8H233.4z"
		/>
	<path fill="#0ED8AB" d="M260.7,275.8c-9.7,0-16.8-6.8-16.8-16.6V259c0-9.2,6.5-16.7,15.9-16.7c10.7,0,15.5,8.8,15.5,15.5
		c0,2.6-1.9,4.4-4.3,4.4h-18.1c0.9,4.1,3.8,6.3,7.9,6.3c2.5,0,4.6-0.8,6.5-2.2c0.7-0.5,1.3-0.7,2.2-0.7c2,0,3.5,1.6,3.5,3.6
		c0,1.2-0.5,2.1-1.2,2.7C269,274.3,265.4,275.8,260.7,275.8 M266.6,256.5c-0.5-4.1-2.9-6.8-6.8-6.8c-3.8,0-6.2,2.7-7,6.8H266.6z"/>
	<g opacity="0.2">
		<g>
			<defs>
				<rect id="SVGID_1_" x="57" y="18.9" width="182" height="182"/>
			</defs>
			<clipPath id="SVGID_2_">
				<use xlink:href="#SVGID_1_"  overflow="visible"/>
			</clipPath>
			<path clip-path="url(#SVGID_2_)" d="M57,76v63.2c0,33.9,27.8,61.7,61.7,61.7h58.6c33.9,0,61.7-27.8,61.7-61.7V76H57z"/>
			<path clip-path="url(#SVGID_2_)" d="M177.3,18.9h-58.6c-32.4,0-59.2,25.3-61.5,57.1h181.6C236.5,44.2,209.7,18.9,177.3,18.9"/>
			<rect x="57" y="111.7" clip-path="url(#SVGID_2_)" width="182" height="26.8"/>
			<path clip-path="url(#SVGID_2_)" d="M192.1,130.6c0,24.4-19.8,44.2-44.2,44.2c-24.4,0-44.2-19.8-44.2-44.2
				c0-24.4,19.8-44.2,44.2-44.2C172.3,86.5,192.1,106.2,192.1,130.6"/>
			<path clip-path="url(#SVGID_2_)" d="M170.8,130.6c0,12.7-10.3,23-23,23c-12.7,0-23-10.3-23-23c0-12.7,10.3-23,23-23
				C160.6,107.7,170.8,117.9,170.8,130.6"/>
			<g opacity="0.5" clip-path="url(#SVGID_2_)">
				<g>
					<defs>
						<rect id="SVGID_3_" x="145.3" y="110.3" width="22.8" height="22.8"/>
					</defs>
					<clipPath id="SVGID_4_">
						<use xlink:href="#SVGID_3_"  overflow="visible"/>
					</clipPath>
					<path clip-path="url(#SVGID_4_)" d="M168.1,121.7c0,6.3-5.1,11.4-11.4,11.4c-6.3,0-11.4-5.1-11.4-11.4
						c0-6.3,5.1-11.4,11.4-11.4C163,110.3,168.1,115.4,168.1,121.7"/>
				</g>
			</g>
			<path clip-path="url(#SVGID_2_)" d="M171,113.7c0,3.5-2.8,6.3-6.3,6.3c-3.5,0-6.3-2.8-6.3-6.3c0-3.5,2.8-6.3,6.3-6.3
				C168.2,107.4,171,110.2,171,113.7"/>
			<path clip-path="url(#SVGID_2_)" d="M203,93h-10.3c0-24.7-20.1-44.7-44.7-44.7c-24.7,0-44.7,20.1-44.7,44.7H93
				c0-30.3,24.7-55,55-55C178.3,38,203,62.7,203,93"/>
		</g>
	</g>
	<path fill="#FFFFFF" d="M57,73.6v63.2c0,33.9,27.8,61.7,61.7,61.7h58.6c33.9,0,61.7-27.8,61.7-61.7V73.6H57z"/>
	<path fill="#E26744" d="M177.3,16.5h-58.6c-32.4,0-59.2,25.3-61.5,57.1h181.6C236.5,41.8,209.7,16.5,177.3,16.5"/>
	<rect x="57" y="109.3" fill="#0ED8AB" width="182" height="26.8"/>
	<path fill="#414042" d="M192.1,128.2c0,24.4-19.8,44.2-44.2,44.2c-24.4,0-44.2-19.8-44.2-44.2c0-24.4,19.8-44.2,44.2-44.2
		C172.3,84,192.1,103.8,192.1,128.2"/>
	<path fill="#58595B" d="M170.8,128.2c0,12.7-10.3,23-23,23c-12.7,0-23-10.3-23-23c0-12.7,10.3-23,23-23
		C160.6,105.2,170.8,115.5,170.8,128.2"/>
	<g opacity="0.5">
		<g>
			<defs>
				<rect id="SVGID_5_" x="145.3" y="107.9" width="22.8" height="22.8"/>
			</defs>
			<clipPath id="SVGID_6_">
				<use xlink:href="#SVGID_5_"  overflow="visible"/>
			</clipPath>
			<path clip-path="url(#SVGID_6_)" fill="#FFFFFF" d="M168.1,119.3c0,6.3-5.1,11.4-11.4,11.4c-6.3,0-11.4-5.1-11.4-11.4
				c0-6.3,5.1-11.4,11.4-11.4C163,107.9,168.1,113,168.1,119.3"/>
		</g>
	</g>
	<path fill="#FFFFFF" d="M171,111.3c0,3.5-2.8,6.3-6.3,6.3c-3.5,0-6.3-2.8-6.3-6.3c0-3.5,2.8-6.3,6.3-6.3
		C168.2,105,171,107.8,171,111.3"/>
	<path fill="#FFFFFF" d="M203,90.6h-10.3c0-24.7-20.1-44.7-44.7-44.7c-24.7,0-44.7,20.1-44.7,44.7H93c0-30.3,24.7-55,55-55
		C178.3,35.6,203,60.3,203,90.6"/>
</g>
</svg>
